<?xml version="1.0" encoding="UTF-8" standalone="no"?>
<!-- Created with Inkscape (http://www.inkscape.org/) -->

<svg
   xmlns:dc="http://purl.org/dc/elements/1.1/"
   xmlns:cc="http://creativecommons.org/ns#"
   xmlns:rdf="http://www.w3.org/1999/02/22-rdf-syntax-ns#"
   xmlns:svg="http://www.w3.org/2000/svg"
   xmlns="http://www.w3.org/2000/svg"
   xmlns:xlink="http://www.w3.org/1999/xlink"
   xmlns:sodipodi="http://sodipodi.sourceforge.net/DTD/sodipodi-0.dtd"
   xmlns:inkscape="http://www.inkscape.org/namespaces/inkscape"
   width="400mm"
   height="300mm"
   viewBox="0 0 400 300"
   version="1.1"
   id="svg8"
   inkscape:version="0.92.3 (2405546, 2018-03-11)"
   sodipodi:docname="cover_lock_ideas.svg">
  <title
     id="title815">Ortogere - Cover Lock Ideas</title>
  <defs
     id="defs2" />
  <sodipodi:namedview
     id="base"
     pagecolor="#ffffff"
     bordercolor="#666666"
     borderopacity="1.0"
     inkscape:pageopacity="0.0"
     inkscape:pageshadow="2"
     inkscape:zoom="5.770288"
     inkscape:cx="673.03654"
     inkscape:cy="902.46329"
     inkscape:document-units="mm"
     inkscape:current-layer="layer1"
     showgrid="false"
     inkscape:window-width="1920"
     inkscape:window-height="1015"
     inkscape:window-x="0"
     inkscape:window-y="0"
     inkscape:window-maximized="1"
     inkscape:snap-bbox="true"
     inkscape:snap-bbox-midpoints="true"
     inkscape:snap-object-midpoints="true"
     inkscape:snap-smooth-nodes="true"
     inkscape:snap-bbox-edge-midpoints="true"
     inkscape:bbox-paths="true"
     inkscape:snap-global="true"
     inkscape:bbox-nodes="true" />
  <metadata
     id="metadata5">
    <rdf:RDF>
      <cc:Work
         rdf:about="">
        <dc:format>image/svg+xml</dc:format>
        <dc:type
           rdf:resource="http://purl.org/dc/dcmitype/StillImage" />
        <dc:title>Ortogere - Cover Lock Ideas</dc:title>
        <cc:license
           rdf:resource="http://creativecommons.org/licenses/by/4.0/" />
        <dc:date>30.08.2018</dc:date>
        <dc:creator>
          <cc:Agent>
            <dc:title>Stefan Krüger</dc:title>
          </cc:Agent>
        </dc:creator>
        <dc:rights>
          <cc:Agent>
            <dc:title>Stefan Krüger</dc:title>
          </cc:Agent>
        </dc:rights>
        <dc:language>EN / DE</dc:language>
      </cc:Work>
      <cc:License
         rdf:about="http://creativecommons.org/licenses/by/4.0/">
        <cc:permits
           rdf:resource="http://creativecommons.org/ns#Reproduction" />
        <cc:permits
           rdf:resource="http://creativecommons.org/ns#Distribution" />
        <cc:requires
           rdf:resource="http://creativecommons.org/ns#Notice" />
        <cc:requires
           rdf:resource="http://creativecommons.org/ns#Attribution" />
        <cc:permits
           rdf:resource="http://creativecommons.org/ns#DerivativeWorks" />
      </cc:License>
    </rdf:RDF>
  </metadata>
  <g
     inkscape:label="Layer 1"
     inkscape:groupmode="layer"
     id="layer1"
     transform="translate(0,3)">
    <g
       id="g1011"
       transform="translate(-80.204988,9.3856901)">
      <path
         inkscape:connector-curvature="0"
         id="path836"
         d="m 140.22916,73.238096 c -0.26214,-0.196609 -1.60815,-1.346977 -2.26785,-1.511905 -0.24446,-0.06111 -0.50397,0 -0.75595,0 -0.37798,0 -0.75596,0 -1.13393,0 -1.13393,0 -2.26786,0 -3.40179,0 -1.39466,0 -2.8308,-0.190712 -4.15774,0.377978 -0.41754,0.178946 -0.75595,0.503968 -1.13393,0.755952 -0.37797,0.251983 -0.75595,0.503967 -1.13392,0.755951 -0.37798,0.251984 -0.72762,0.552797 -1.13393,0.755952 -0.35636,0.178181 -0.77757,0.199797 -1.13393,0.377978 -1.40767,0.703832 -1.01396,0.844966 -2.26786,1.889879 -0.34898,0.290817 -0.81271,0.434735 -1.13393,0.755955 -0.32122,0.321217 -0.50397,0.755951 -0.75595,1.133927 -0.25198,0.377976 -0.5528,0.727617 -0.75595,1.133927 -0.2092,0.418407 -0.71559,2.322891 -0.75595,2.645834 -0.26794,2.143498 0.9631,5.172636 2.26785,6.803572 0.55654,0.695674 1.23067,1.290598 1.88988,1.889882 2.08988,1.899888 2.40273,2.062604 4.91369,3.401785 0.99433,0.530309 1.95474,1.155546 3.02381,1.511906 1.21894,0.40631 2.51984,0.503967 3.77977,0.755951 4.78806,0.957615 2.73118,0.674087 7.55952,1.133928 1.38536,0.131939 2.76611,0.377976 4.15774,0.377976 1.39163,0 2.76754,-0.314786 4.15774,-0.377976 1.38448,-0.06293 2.77339,0.06592 4.15773,0 0.29345,-0.01397 6.68554,-0.66842 7.18155,-0.755952 1.02315,-0.180554 2.01587,-0.503968 3.02381,-0.755952 2.1445,-0.536125 3.74065,-0.764635 5.66964,-1.889881 0.69685,-0.406495 1.25992,-1.007936 1.88988,-1.511906 1.23068,-0.984541 2.30471,-1.585608 3.02381,-3.023809 0.13774,-0.275474 0.7659,-3.302373 0.75596,-3.401785 -0.0675,-0.675122 -0.52409,-1.252241 -0.75596,-1.889882 -0.5706,-1.569148 -0.87967,-3.146673 -1.88988,-4.535712 -0.524,-0.720503 -1.20547,-1.319543 -1.88988,-1.889882 -1.92352,-1.602936 -3.38091,-2.38457 -5.66964,-3.401785 -3.61025,-1.604555 -7.41812,-2.841619 -11.33929,-3.401787 -1.37764,-0.196805 -2.76611,-0.377976 -4.15773,-0.377976 -0.0563,0 -6.32126,0.605229 -6.80358,0.755952 -2.12971,0.665535 -3.89906,2.137087 -5.66964,3.401787"
         style="fill:none;stroke:#000000;stroke-width:0.26458332px;stroke-linecap:butt;stroke-linejoin:miter;stroke-opacity:1" />
      <path
         inkscape:connector-curvature="0"
         id="path838"
         d="m 147.03274,81.553572 c -5.95883,-1.191765 0.34793,0.241972 -2.64584,-0.755952 -0.20456,-0.06819 -1.38313,0 -1.5119,0 -0.37798,0 -0.77535,-0.119528 -1.13393,0 -0.16904,0.05635 -0.20894,0.321631 -0.37798,0.377976 -0.23905,0.07968 -0.5169,-0.07968 -0.75595,0 -0.37141,0.123807 -0.62364,0.935466 -0.75595,1.133928 -0.0988,0.148256 -0.29829,0.218609 -0.37798,0.377978 -0.0563,0.112689 0.0564,0.265285 0,0.377976 -0.0797,0.159369 -0.32163,0.208939 -0.37797,0.377976 -0.006,0.01664 -0.003,1.883963 0,1.889881 0.15936,0.318736 0.50397,0.503968 0.75595,0.755952 0.37797,0.377976 0.7063,0.813205 1.13393,1.133928 0.74155,0.556167 2.11382,0.907618 3.02381,0.755954 0.393,-0.0655 0.75083,-0.268523 1.13393,-0.377979 0.49949,-0.142711 1.00793,-0.251984 1.5119,-0.377975 0.50397,-0.125992 1.03443,-0.173342 1.5119,-0.377976 0.41755,-0.178946 0.75596,-0.503968 1.13393,-0.755952 0.37798,-0.251984 0.81271,-0.434734 1.13393,-0.755952 0.19921,-0.199212 0.25199,-0.50397 0.37798,-0.755954 0.12599,-0.251984 0.28888,-0.488683 0.37797,-0.755951 0.23197,-0.69591 -0.71106,-1.551588 -1.13392,-1.889882 -0.35473,-0.283779 -0.68317,-0.699606 -1.13393,-0.755952 -0.63748,-0.07968 -1.24934,0.427249 -1.88988,0.377976 -2.7292,-0.209939 -2.5695,-1.588243 -4.15774,0"
         style="fill:none;stroke:#000000;stroke-width:0.26458332px;stroke-linecap:butt;stroke-linejoin:miter;stroke-opacity:1" />
      <path
         inkscape:connector-curvature="0"
         id="path840"
         d="m 117.55059,81.553572 c -0.12599,0.503968 -0.30451,0.997649 -0.37797,1.511906 -0.0535,0.374176 0,0.755952 0,1.133927 0,0.377976 0,0.755952 0,1.13393 0,1.763888 0,3.527777 0,5.291667 0,0.755952 0.0684,1.51501 0,2.267855 -0.0582,0.639799 -0.30703,1.251376 -0.37798,1.889882 -0.0556,0.500885 0,1.007938 0,1.511905 0,0.62996 0,1.25992 0,1.88988 0.62996,0.377977 1.25992,0.755954 1.88988,1.133931 0.126,0 0.25845,-0.03984 0.37798,0 0.26727,0.08909 0.53057,0.20894 0.75595,0.377976 0.28509,0.213815 0.47087,0.542139 0.75595,0.755949 0.22539,0.16904 0.51438,0.23303 0.75596,0.37798 0.77907,0.46744 1.5119,1.00794 2.26785,1.5119 1.21023,0.80682 2.40368,1.75183 3.77977,2.26786 0.4864,0.1824 1.0255,0.19558 1.5119,0.37798 2.97815,1.1168 -0.0461,0.47754 3.40179,1.5119 1.23068,0.36921 2.52548,0.47723 3.77976,0.75595 0.50711,0.1127 1.0048,0.26529 1.5119,0.37798 0.62714,0.13936 1.26275,0.23861 1.88988,0.37798 0.50711,0.11269 0.99561,0.32061 1.51191,0.37797 0.62611,0.0696 1.25992,0 1.88988,0 1.76389,0 3.52778,0 5.29167,0 0.62996,0 1.26304,-0.0627 1.88988,0 0.63925,0.0639 1.25137,0.30703 1.88988,0.37798 1.00177,0.11131 2.02366,-0.12502 3.02381,0 0.51547,0.0644 0.99644,0.31354 1.5119,0.37798 0.50008,0.0625 1.00794,0 1.51191,0 0.50397,0 1.00793,0 1.5119,0 0.37798,0 0.7611,0.0621 1.13393,0 0.393,-0.0655 0.74093,-0.31248 1.13393,-0.37798 0.37283,-0.0621 0.76329,0.0741 1.13393,0 0.27625,-0.0553 0.48868,-0.28889 0.75595,-0.37798 0.26578,-0.0886 1.78627,0.10361 1.88988,0 0.0891,-0.0891 -0.0891,-0.28888 0,-0.37797 0.0891,-0.0891 0.26529,0.0563 0.37798,0 0.15937,-0.0797 0.25198,-0.25199 0.37797,-0.37798 0.126,-0.12599 0.25199,-0.25198 0.37798,-0.37798 0.12599,-0.12599 0.29829,-0.2186 0.37798,-0.37797 0.0563,-0.11269 -0.11269,-0.32163 0,-0.37798 0.22538,-0.11269 0.54629,0.13978 0.75595,0 0.23441,-0.15627 0.17876,-0.55674 0.37797,-0.75595 0.19922,-0.19921 0.52155,-0.2217 0.75596,-0.37798 0.29651,-0.19767 0.43721,-0.59658 0.75595,-0.75595 0.11269,-0.0563 0.28889,0.0891 0.37798,0 0.0891,-0.0891 -0.0891,-0.28889 0,-0.37797 0.0891,-0.0891 0.28888,0.0891 0.37797,0 0.0891,-0.0891 -0.0891,-0.28889 0,-0.37798 0.17818,-0.17818 0.57777,0.17818 0.75595,0 0.0891,-0.0891 -0.0891,-0.28889 0,-0.37798 0.0891,-0.0891 0.26529,0.0563 0.37798,0 0.31874,-0.15937 0.43722,-0.59658 0.75595,-0.75595 0.11269,-0.0564 0.26529,0.0563 0.37798,0 0.15937,-0.0797 0.21861,-0.29829 0.37798,-0.37798 0.22538,-0.11269 0.57777,0.17818 0.75595,0 0.0891,-0.0891 -0.0891,-0.28888 0,-0.37797 0.0891,-0.0891 0.28888,0.0891 0.37797,0 0.0122,-0.0122 0,-1.04226 0,-1.13393 0,-0.12599 0.0891,-0.28889 0,-0.37798 -0.0891,-0.0891 -0.25198,0 -0.37797,0"
         style="fill:none;stroke:#000000;stroke-width:0.26458332px;stroke-linecap:butt;stroke-linejoin:miter;stroke-opacity:1" />
      <path
         inkscape:connector-curvature="0"
         id="path844"
         d="m 173.86905,100.45238 1.13392,-12.473211"
         style="fill:none;stroke:#000000;stroke-width:0.26458332px;stroke-linecap:butt;stroke-linejoin:miter;stroke-opacity:1" />
      <path
         inkscape:connector-curvature="0"
         id="path846"
         d="m 139.47321,109.90179 c -0.4194,2.51641 -0.37797,1.50147 -0.37797,3.02381 0,0.25198 -0.0611,0.51149 0,0.75595 0.0683,0.27331 0.25198,0.50397 0.37797,0.75595 0,0.37798 -0.0741,0.76329 0,1.13393 0.0553,0.27626 0.33166,0.47806 0.37798,0.75595 0.0829,0.49711 0,1.00794 0,1.51191 0,1.13392 0,2.26785 0,3.40178 0,1.51191 0,3.02381 0,4.53572 0,0.75595 0.0628,1.51451 0,2.26785 -0.0636,0.76374 -0.31433,1.50413 -0.37798,2.26786 -0.0628,0.75334 0,1.5119 0,2.26786 0,1.63789 0,3.27579 0,4.91369 0,2.51984 0,5.03968 0,7.55952 0,0.88195 -0.0628,1.76613 0,2.64583 0.0635,0.88864 0.31872,1.75691 0.37798,2.64584 0.067,1.0057 0,2.01587 0,3.02381 0,3.02381 0,6.04762 0,9.07143 0,2.51984 0,5.03968 0,7.55952 0,0.88194 0.0628,1.76613 0,2.64583 -0.24842,3.47787 -0.40017,1.86745 -1.13393,5.29167 -0.18667,0.87112 -0.24251,1.7653 -0.37798,2.64583 -0.11653,0.75747 -0.25198,1.51191 -0.37797,2.26786 -0.12599,0.75595 -0.24088,1.51384 -0.37798,2.26786 -0.11492,0.63207 -0.31405,1.25063 -0.37797,1.88988 -0.12537,1.25367 0.11406,2.52501 0,3.77976 -0.0694,0.76323 -0.3086,1.50463 -0.37798,2.26786 -0.057,0.62737 0.057,1.26251 0,1.88988 -0.0806,0.88658 -0.5655,3.20545 -0.75595,4.15774 -0.25199,1.25992 -0.47723,2.52548 -0.75596,3.77976 -0.11269,0.50711 -0.31354,0.99643 -0.37797,1.5119 -0.0625,0.50008 0.0625,1.01183 0,1.51191 -0.0644,0.51546 -0.31354,0.99644 -0.37798,1.5119 -0.0625,0.50008 0,1.00794 0,1.51191 0,0.50397 0,1.00793 0,1.5119 0,3.1498 0,6.2996 0,9.44941 0,0.88194 0,1.76389 0,2.64583 0,0.12599 0.12599,0.37798 0,0.37798 -0.12599,0 0,-0.25199 0,-0.37798"
         style="fill:none;stroke:#000000;stroke-width:0.26458332px;stroke-linecap:butt;stroke-linejoin:miter;stroke-opacity:1" />
      <path
         inkscape:connector-curvature="0"
         id="path848"
         d="m 149.30059,110.65774 c 0.47261,1.2983 -0.61187,2.24917 -0.75595,3.40178 -0.14174,1.13393 0.11339,2.26786 0,3.40179 -0.0763,0.76258 -0.25198,1.5119 -0.37798,2.26786 -0.52443,3.14663 -0.26959,1.50918 -0.75595,4.91369 -0.12599,0.88194 -0.3145,1.7572 -0.37797,2.64583 -0.0628,0.8797 0.0587,1.76584 0,2.64583 -0.0676,1.01353 -0.31462,2.01001 -0.37798,3.02381 -0.13361,2.1377 0.11881,4.28703 0,6.4256 -0.0633,1.13915 -0.31469,2.26263 -0.37798,3.40178 -0.0629,1.13219 0,2.26786 0,3.40179 0,1.13393 0,2.26786 0,3.40179 0,1.00793 0,2.01587 0,3.02381 0,1.00793 -0.067,2.0181 0,3.0238 0.0593,0.88893 0.31451,1.7572 0.37798,2.64584 0.0628,0.8797 0,1.76389 0,2.64583 0,0.75595 0,1.51191 0,2.26786 0,0.75595 0,1.5119 0,2.26786 0,0.75595 0.058,1.51413 0,2.26785 -0.0683,0.88828 -0.3145,1.7572 -0.37798,2.64584 -0.0628,0.8797 0,1.76388 0,2.64583 -0.12599,0.88194 -0.30964,1.75756 -0.37797,2.64583 -0.058,0.75373 0.0628,1.51452 0,2.26786 -0.0636,0.76373 -0.30859,1.50463 -0.37798,2.26786 -0.10266,1.12927 0,2.26785 0,3.40178 0,1.88988 0,3.77976 0,5.66965 0,0.62996 0.057,1.2625 0,1.88988 -0.0694,0.76323 -0.30859,1.50462 -0.37797,2.26785 -0.057,0.62738 0,1.25992 0,1.88988 0,1.13393 0,2.26786 0,3.40179 0,5.16567 0,10.33135 0,15.49702 0,1.76389 0,3.52778 0,5.29167 0,0.37798 0,0.75595 0,1.13393 0,0.37798 0.0741,0.76329 0,1.13393 -0.0553,0.27625 -0.28889,0.48868 -0.37798,0.75595 -0.0251,0.0753 -0.0251,1.05866 0,1.13393 0.0891,0.26727 0.30965,0.48264 0.37798,0.75595 0.0611,0.24446 0,0.50397 0,0.75595 0,0.126 0.0891,0.46707 0,0.37798 -0.19921,-0.19921 -0.25199,-0.50397 -0.37798,-0.75595 -0.12599,-0.25199 -0.30965,-0.48264 -0.37798,-0.75596 -0.0611,-0.24445 0.0611,-0.51149 0,-0.75595 -0.0683,-0.27331 -0.25198,-0.50396 -0.37797,-0.75595"
         style="fill:none;stroke:#000000;stroke-width:0.26458332px;stroke-linecap:butt;stroke-linejoin:miter;stroke-opacity:1" />
      <path
         inkscape:connector-curvature="0"
         id="path850"
         d="m 134.9375,202.50595 c -2.00686,-0.80274 -1.21139,-0.75595 -2.26786,-0.75595 -0.25198,0 -0.51149,0.0611 -0.75595,0 -0.89192,-0.22298 -0.5542,-0.6174 -1.51191,-0.37798 -0.13492,0.0337 -2.19343,1.05951 -2.26785,1.13393 -0.32122,0.32122 -0.43474,0.81271 -0.75596,1.13393 -0.32121,0.32122 -0.75595,0.50397 -1.13392,0.75595 -0.25199,0.37798 -0.46514,0.78495 -0.75596,1.13393 -2.69357,2.69358 0.21505,-0.3633 -1.88988,2.26786 -0.9375,1.17188 -0.73632,0.33871 -1.5119,1.88988 -0.17818,0.35636 -0.17299,0.79228 -0.37798,1.13393 -0.18334,0.30557 -0.5726,0.45037 -0.75595,0.75595 -0.71717,1.19529 -0.16958,1.01748 -0.37798,2.26786 -0.62761,3.76565 -0.17005,-2.04139 -0.75595,2.64583 -0.0625,0.50008 0.0557,1.01102 0,1.51191 -0.0709,0.6385 -0.30703,1.25137 -0.37798,1.88988 -0.0556,0.50088 0,1.00793 0,1.5119 0,1.38592 0,2.77183 0,4.15774 0,0.88194 0,1.76389 0,2.64583 0,0.50397 -0.0713,1.013 0,1.51191 0.11124,0.77862 0.82902,2.036 1.13393,2.64583 0.25199,0.50397 0.47641,1.02269 0.75596,1.51191 0.44215,0.77377 1.40313,1.99683 1.88988,2.64583 0.75595,1.00793 1.43819,2.07562 2.26785,3.02381 2.01272,2.30024 0.8928,0.7812 3.02381,2.64583 0.53638,0.46933 0.94932,1.07434 1.51191,1.51191 0.5799,0.45103 1.25992,0.75595 1.88988,1.13393 0.62996,0.37797 1.20777,0.86108 1.88988,1.13392 0.59649,0.2386 1.25992,0.25199 1.88988,0.37798 0.62996,0.12599 1.25064,0.31405 1.88988,0.37798 0.62684,0.0627 1.25992,0 1.88988,0 1.38591,0 2.77183,0 4.15774,0 2.39385,0 4.7877,0 7.18155,0 0.88194,0 1.77414,0.1341 2.64583,0 0.78758,-0.12117 1.49481,-0.56269 2.26786,-0.75596 0.7435,-0.18587 1.52848,-0.17632 2.26786,-0.37797 0.65458,-0.17853 1.25992,-0.50397 1.88988,-0.75595 0.62996,-0.25199 1.29677,-0.42646 1.88988,-0.75596 0.55068,-0.30593 0.99928,-0.76777 1.5119,-1.13393 0.58707,-0.41933 2.25575,-1.43477 2.64584,-1.88988 0.36669,-0.4278 0.48231,-1.01936 0.75595,-1.5119 0.35678,-0.6422 0.72641,-1.27861 1.13393,-1.88988 0.34944,-0.52416 0.87807,-0.93624 1.13393,-1.51191 0.26091,-0.58706 0.19337,-1.27454 0.37797,-1.88988 0.51633,-1.72108 1.63262,-3.11286 1.88988,-4.91369 0.0535,-0.37418 0,-0.75595 0,-1.13393 0,-0.50397 0,-1.00793 0,-1.5119 0,-0.62996 0.057,-1.26251 0,-1.88988 -0.22554,-2.48091 -1.10889,-4.83859 -1.88988,-7.18155 -0.24987,-0.7496 -1.07361,-3.36882 -1.5119,-4.15774 -0.60611,-1.09099 -1.4085,-1.78647 -2.26786,-2.64583 -0.50397,-0.50397 -0.97553,-1.04258 -1.51191,-1.51191 -0.47409,-0.41483 -1.04106,-0.7154 -1.5119,-1.13393 -6.32859,-5.6254 2.72284,1.75866 -4.15774,-3.40178 -0.78722,-0.59042 -1.4298,-1.37415 -2.26786,-1.88988 -2.54066,-1.56349 -2.55389,-0.92524 -5.29166,-1.51191 -3.73806,-0.80101 -1.59336,-1.01072 -5.66964,-0.75595 -0.28127,0.0176 -5.19895,0.64733 -5.66965,0.75595 -7.78676,1.79695 3.1268,-0.14315 -4.53571,1.13393 z"
         style="fill:none;stroke:#000000;stroke-width:0.26458332px;stroke-linecap:butt;stroke-linejoin:miter;stroke-opacity:1" />
      <path
         inkscape:connector-curvature="0"
         id="path852"
         d="m 134.55952,222.53869 c -0.37798,0 -1.13392,0.37797 -1.13393,0 0,-0.37797 1.0144,-0.35858 1.13393,0 1.08266,3.24798 -1.27468,1.32424 0,3.02381 0.21382,0.28509 0.50397,0.50397 0.75595,0.75595 0.70313,0.70313 0.93626,1.03509 1.88989,1.51191 1.37467,0.68733 2.7545,0.40092 4.15773,0 0.3831,-0.10946 0.75596,-0.25199 1.13393,-0.37798 0.37798,-0.12599 0.79229,-0.17299 1.13393,-0.37798 0.30558,-0.18334 0.50397,-0.50396 0.75595,-0.75595 0.126,-0.12599 0.27914,-0.22972 0.37798,-0.37797 0.72071,-1.08108 0.14493,-0.49161 0.37798,-1.88989 0.0655,-0.393 0.37797,-0.7355 0.37797,-1.13392 0,-0.39843 -0.31247,-0.74093 -0.37797,-1.13393 -0.0621,-0.37284 0.14037,-0.78299 0,-1.13393 -0.13235,-0.33087 -0.54214,-0.47087 -0.75596,-0.75595 -0.16903,-0.22538 -0.17876,-0.55674 -0.37797,-0.75596 -0.58717,-0.58716 -1.54026,-0.37797 -2.26786,-0.37797 -0.25198,0 -0.50397,0 -0.75595,0 -0.126,0 -0.26529,-0.0563 -0.37798,0 -0.0721,0.036 -0.65728,0.50458 -0.37798,0.75595 1.1993,1.07936 2.51985,2.01587 3.77977,3.02381"
         style="fill:none;stroke:#000000;stroke-width:0.26458332px;stroke-linecap:butt;stroke-linejoin:miter;stroke-opacity:1" />
      <path
         inkscape:connector-curvature="0"
         id="path854"
         d="m 118.68452,214.97917 c -0.25198,0.62996 -0.56956,1.2375 -0.75595,1.88988 -0.0692,0.24229 0.0611,0.51149 0,0.75595 -0.0683,0.27332 -0.25199,0.50397 -0.37798,0.75595 0,0.50397 0.0625,1.01183 0,1.51191 -0.12886,1.03093 -0.55219,2.00502 -0.75595,3.02381 -0.3006,1.50299 -0.48176,3.02767 -0.75595,4.53571 -0.11492,0.63207 -0.31981,1.25008 -0.37798,1.88988 -0.0684,0.75285 0.0752,1.51566 0,2.26786 -0.0517,0.5169 -0.31354,0.99644 -0.37797,1.5119 -0.0625,0.50008 0,1.00794 0,1.51191 0,0.25198 0.0797,0.5169 0,0.75595 -0.0564,0.16904 -0.1998,0.37798 -0.37798,0.37798 -0.12599,0 0,-0.25199 0,-0.37798 0.37798,1.00794 0.69673,2.04011 1.13393,3.02381 0.0724,0.16283 0.32163,0.20894 0.37798,0.37798 0.57633,1.72899 -0.99095,-0.39165 0.37797,1.88988 0.18335,0.30558 0.57261,0.45038 0.75596,0.75595 0.40997,0.68329 0.39959,1.55514 0.75595,2.26786 0.20315,0.40631 0.50397,0.75595 0.75595,1.13393 0.25198,0.37797 0.50397,0.75595 0.75595,1.13393 0.25199,0.37797 0.43474,0.81271 0.75595,1.13393 0.69359,0.69358 1.8553,1.01781 2.64584,1.5119 0.5342,0.33388 0.9777,0.80005 1.5119,1.13393 0.47781,0.29863 1.0341,0.45732 1.51191,0.75595 0.5342,0.33388 0.9777,0.80005 1.5119,1.13393 0.47781,0.29863 1.00794,0.50397 1.51191,0.75595 0.50397,0.25199 1.00793,0.50397 1.5119,0.75595 0.50397,0.25199 1.00794,0.50397 1.51191,0.75596 0.50396,0.25198 0.98432,0.55811 1.5119,0.75595 1.16332,0.43624 2.20438,0.39673 3.40179,0.75595 0.64987,0.19496 1.24,0.56099 1.88988,0.75595 0.61534,0.18461 1.27454,0.19338 1.88988,0.37798 0.64987,0.19496 1.24001,0.56099 1.88988,0.75595 0.61534,0.1846 1.26274,0.23861 1.88988,0.37798 0.50711,0.11269 0.9956,0.32061 1.51191,0.37797 0.6261,0.0696 1.26377,-0.0696 1.88988,0 1.0326,0.11474 1.99529,0.60903 3.02381,0.75596 0.37417,0.0534 0.75595,0 1.13392,0 0.50397,0 1.01301,0.0713 1.51191,0 0.39442,-0.0564 0.74093,-0.31248 1.13393,-0.37798 0.37283,-0.0621 0.76109,0.0621 1.13393,0 0.786,-0.131 1.48185,-0.62495 2.26785,-0.75595 1.25039,-0.2084 1.07257,0.33919 2.26786,-0.37798 0.30558,-0.18334 0.47087,-0.54213 0.75595,-0.75595 0.22538,-0.16904 0.53057,-0.20894 0.75596,-0.37798 0.28508,-0.21381 0.50396,-0.50396 0.75595,-0.75595 0.25198,-0.25198 0.53333,-0.47768 0.75595,-0.75595 0.28378,-0.35473 0.47217,-0.7792 0.75595,-1.13393 0.22262,-0.27827 0.57261,-0.45038 0.75596,-0.75595 0.20498,-0.34165 0.13892,-0.81519 0.37797,-1.13393 0.16904,-0.22538 0.55674,-0.17877 0.75595,-0.37798 0.19921,-0.19921 0.22171,-0.52154 0.37798,-0.75595 0.42508,-0.63762 0.90538,-0.5977 1.13393,-1.5119 0.0611,-0.24446 -0.0611,-0.5115 0,-0.75596 0.13666,-0.54663 0.64545,-0.95939 0.75595,-1.5119 0.0741,-0.37064 0,-0.75595 0,-1.13393 0,-1.00794 0,-2.01587 0,-3.02381 0,-0.25198 0,-0.50397 0,-0.75595 0,-0.12599 -0.0563,-0.26529 0,-0.37798 0.0797,-0.15937 0.29829,-0.21861 0.37798,-0.37797 0.0563,-0.11269 0,-0.25199 0,-0.37798 0,-0.12599 0.0891,-0.28889 0,-0.37798 -0.37287,-0.37286 -0.75596,0.77451 -0.75596,-0.37797"
         style="fill:none;stroke:#000000;stroke-width:0.26458332px;stroke-linecap:butt;stroke-linejoin:miter;stroke-opacity:1" />
      <path
         inkscape:connector-curvature="0"
         id="path856"
         d="m 169.71131,230.85417 c 0,1.00793 0,2.01587 0,3.02381 0,0.25198 0.0611,0.51149 0,0.75595 -0.0683,0.27331 -0.30965,0.48263 -0.37798,0.75595 -0.0639,0.25579 0,2.4026 0,2.64583 0,0.25199 0,0.50397 0,0.75596 0,0.25198 0.17818,0.57777 0,0.75595 -0.28173,0.28173 -0.75595,0.25199 -1.13393,0.37798"
         style="fill:none;stroke:#000000;stroke-width:0.26458332px;stroke-linecap:butt;stroke-linejoin:miter;stroke-opacity:1" />
      <path
         inkscape:connector-curvature="0"
         id="path858"
         d="m 169.71131,230.85417 c 3.42244,1.59455 -0.48892,4.09193 0,6.04762 0.0683,0.27331 0.30964,0.48263 0.37797,0.75595 0.0541,0.21622 0.0184,2.53527 0,2.64583 -0.0655,0.393 -0.31247,0.74093 -0.37797,1.13393 -0.0621,0.37283 0.0741,0.76329 0,1.13393 -0.0553,0.27625 -0.30965,0.48263 -0.37798,0.75595 -0.0611,0.24446 0.0797,0.5169 0,0.75595 -0.0563,0.16904 -0.29829,0.21861 -0.37797,0.37798 -0.0564,0.11269 0.0207,0.50225 0,0.37798 -0.27244,-1.63462 -0.50398,-3.2758 -0.75596,-4.91369"
         style="fill:none;stroke:#000000;stroke-width:0.26458332px;stroke-linecap:butt;stroke-linejoin:miter;stroke-opacity:1" />
      <path
         inkscape:connector-curvature="0"
         id="path860"
         d="m 107.72321,144.6756 c -0.25198,-0.62996 -0.3321,-1.36007 -0.75595,-1.88989 -0.15741,-0.19676 -0.5169,0.0797 -0.75595,0 -0.16904,-0.0563 -0.1998,-0.37797 -0.37798,-0.37797 -0.28172,0 -0.4797,0.32272 -0.75595,0.37797 -0.37064,0.0741 -0.76329,-0.0741 -1.13393,0 -0.27625,0.0553 -0.49437,0.27335 -0.75595,0.37798 -0.36993,0.14797 -0.764,0.23001 -1.13393,0.37798 -1.24921,0.49968 -0.47326,0.19057 -1.13393,1.5119 -0.20315,0.40631 -0.63115,0.69714 -0.75595,1.13393 -0.13845,0.48458 0.0556,1.01102 0,1.5119 -0.0709,0.63851 -0.377976,1.24745 -0.377976,1.88989 0,0.004 0.748366,4.4864 0.755956,4.53571 0.13546,0.88054 0.11597,1.79433 0.37797,2.64583 0.48241,1.56783 1.57222,2.96483 2.64583,4.15774 2.05487,2.28318 3.90305,3.49981 6.80358,4.53572 0.8638,0.30849 1.73664,0.63472 2.64583,0.75595 0.99909,0.13321 2.01587,0 3.02381,0 2.60695,0 3.54659,0.24446 6.04762,-0.75595 3.43854,-1.37542 6.17526,-4.79347 7.18155,-8.31548 0.66176,-2.31616 0.64409,-6.5033 -0.37798,-8.69345 -0.45833,-0.98215 -1.22027,-1.7936 -1.88988,-2.64584 -0.71766,-0.91338 -1.38591,-1.88988 -2.26786,-2.64583 -1.20618,-1.03387 -4.93374,-2.98738 -6.42559,-3.40179 -1.60786,-0.44662 -5.62479,-0.45581 -7.18155,-0.37797 -1.26463,0.0632 -2.55137,0.0709 -3.77976,0.37797 -2.31007,0.57752 -5.14978,2.20663 -7.18155,3.40179 -1.958568,1.1521 -3.683429,2.17152 -5.291667,3.77976 -0.44545,0.44545 -0.755952,1.00794 -1.13393,1.51191"
         style="fill:none;stroke:#000000;stroke-width:0.26458332px;stroke-linecap:butt;stroke-linejoin:miter;stroke-opacity:1" />
      <path
         inkscape:connector-curvature="0"
         id="path862"
         d="m 127,147.32143 c 0.0976,-0.039 2.51592,-1.04928 3.02381,-1.13393 0.37283,-0.0621 0.75595,0 1.13393,0 0.37797,0 0.75595,0 1.13392,0 0.25199,0 0.5115,-0.0611 0.75596,0 0.71646,0.17912 1.00987,0.6319 1.5119,1.13393 0.25199,0.25198 0.54214,0.47086 0.75595,0.75595 0.3799,0.50653 0.53816,1.34539 0.75596,1.88988 0.49066,1.22667 0.37797,0.2548 0.37797,1.51191 0,0.12599 0.0564,0.26528 0,0.37797 -0.0797,0.15937 -0.25198,0.25199 -0.37797,0.37798 -1.29501,1.29501 -0.16855,0.32791 -1.51191,1.13393 -0.38953,0.23372 -0.71639,0.577 -1.13393,0.75595 -0.47747,0.20463 -1.0255,0.19558 -1.5119,0.37798 -0.52758,0.19784 -0.98433,0.55811 -1.51191,0.75595 -0.4864,0.1824 -1.00793,0.25198 -1.5119,0.37797 -0.50397,0.25199 -0.99401,0.534 -1.51191,0.75596 -3.19604,1.36973 0.4175,-0.19887 -1.88988,0.37797 -0.27331,0.0683 -0.50397,0.25199 -0.75595,0.37798"
         style="fill:none;stroke:#000000;stroke-width:0.26458332px;stroke-linecap:butt;stroke-linejoin:miter;stroke-opacity:1" />
      <path
         inkscape:connector-curvature="0"
         id="path864"
         d="m 124.73214,157.14881 c -0.59632,6.01406 4.19133,2.29473 6.04762,3.77976 0.35473,0.28378 0.46514,0.78495 0.75595,1.13393 0.34221,0.41065 0.79173,0.72328 1.13393,1.13393 0.81413,0.97696 0.75511,1.13139 1.13393,2.26786 0.45766,1.37298 0.37798,0.7355 0.37798,1.88988 0,0.25198 0.0797,0.5169 0,0.75595 -0.21359,0.64074 -1.02874,0.37798 -1.51191,0.37798 -0.37798,0 -0.75595,0 -1.13393,0 -0.37797,0 -0.75975,0.0534 -1.13393,0 -1.18161,-0.16881 -1.56885,-0.44825 -2.64583,-0.75596 -1.25443,-0.35841 -1.51301,-0.30282 -2.64583,-0.75595 -0.76277,-0.30511 -0.65323,-0.27525 -1.13393,-0.75595 -0.12599,-0.12599 -0.21861,-0.29829 -0.37798,-0.37798 -0.11269,-0.0563 -0.25198,0 -0.37797,0"
         style="fill:none;stroke:#000000;stroke-width:0.26458332px;stroke-linecap:butt;stroke-linejoin:miter;stroke-opacity:1" />
      <path
         inkscape:connector-curvature="0"
         id="path866"
         d="m 123.22024,165.84226 c -2.26786,0.88194 -4.65304,1.50732 -6.80357,2.64584 -0.24899,0.13181 0.30964,0.48263 0.37797,0.75595 0.0611,0.24446 -0.0611,0.51149 0,0.75595 0.0683,0.27332 0.30965,0.48264 0.37798,0.75595 0.15279,0.61115 -0.12355,1.27216 0,1.88988 0.0553,0.27626 0.37797,0.47423 0.37797,0.75596 0,0.39842 -0.29984,0.74324 -0.37797,1.13392 -0.0494,0.2471 0.0797,0.5169 0,0.75596 -0.0181,0.0544 -1.45746,1.49375 -1.51191,1.5119 -0.23905,0.0797 -0.50396,0 -0.75595,0 -0.25198,0 -0.51149,0.0611 -0.75595,0 -0.27332,-0.0683 -0.49438,-0.27334 -0.75595,-0.37797 -1.24623,-0.4985 -1.05414,-0.0893 -1.88989,-1.13393 -1.02295,-1.2787 -0.66996,-1.02195 -1.13392,-2.64584 -0.49751,-1.74126 -0.37798,-0.49952 -0.37798,-2.26785 0,-0.126 -0.0563,-0.26529 0,-0.37798 0.0797,-0.15937 0.25199,-0.25198 0.37798,-0.37798 0.12599,-0.12599 0.25198,-0.25198 0.37797,-0.37797 0.46707,-0.46707 0.1998,-0.37798 0.75595,-0.37798"
         style="fill:none;stroke:#000000;stroke-width:0.26458332px;stroke-linecap:butt;stroke-linejoin:miter;stroke-opacity:1" />
      <path
         inkscape:connector-curvature="0"
         id="path868"
         d="m 136.82738,155.25893 c -0.38504,-0.10324 -2.02213,-0.58588 -2.64583,-0.37798 -0.0297,0.01 -1.12405,1.10427 -1.13393,1.13393 -0.15937,0.47811 0.0988,1.01773 0,1.51191 -0.26021,1.30103 -0.6031,0.91715 -0.37798,2.26785 0.12714,0.76286 1.1479,2.72702 1.88988,3.02381 0.35094,0.14038 0.75595,0 1.13393,0 0.37798,0 0.7611,0.0621 1.13393,0 1.74804,-0.29134 2.77238,-1.4503 3.40178,-3.02381 0.22421,-0.56051 0.63725,-1.61967 0.37798,-2.26785 -0.13235,-0.33088 -0.50397,-0.50397 -0.75595,-0.75596 -1.31941,-1.3194 -0.41788,-0.64326 -3.02381,-1.5119 z"
         style="fill:none;stroke:#000000;stroke-width:0.26458332px;stroke-linecap:butt;stroke-linejoin:miter;stroke-opacity:1" />
      <path
         inkscape:connector-curvature="0"
         id="path870"
         d="m 136.82738,155.25893 c 1.13393,0.88194 2.32811,1.69145 3.40178,2.64583 0.0135,0.012 -0.0204,1.05239 0,1.13393 0.0683,0.27332 0.25199,0.50397 0.37798,0.75595 0.12599,0.25199 0.1526,0.58692 0.37798,0.75596 0.31873,0.23905 0.77757,0.19979 1.13393,0.37797 0.40631,0.20316 0.70297,0.6123 1.13392,0.75595 0.35858,0.11953 0.75596,0 1.13393,0 0.96997,0 1.70654,0.0917 2.64584,-0.37797 0.46875,-0.23438 1.33386,-1.5338 1.5119,-1.88988 0.17818,-0.35636 0.23001,-0.76401 0.37798,-1.13393 0.36985,-0.92464 0.61565,-0.70148 0.37797,-1.88988 -0.0553,-0.27626 -0.25198,-0.50397 -0.37797,-0.75596 -0.126,-0.25198 -0.25199,-0.50396 -0.37798,-0.75595 -0.40317,-0.80635 -0.22678,-0.83155 -1.13393,-1.13393 -0.42697,-0.14232 -0.78569,0.2619 -1.13393,0.37798 -0.37797,0.12599 -0.54087,-0.26727 -0.75595,0.37798 -0.29497,0.88493 0.0304,0.61256 0.37798,1.13392 0.15627,0.23441 0.25198,0.50397 0.37797,0.75596"
         style="fill:none;stroke:#000000;stroke-width:0.26458332px;stroke-linecap:butt;stroke-linejoin:miter;stroke-opacity:1" />
      <path
         inkscape:connector-curvature="0"
         id="path872"
         d="m 153.08036,152.6131 c -1.32195,-0.74345 -1.54918,-0.75596 -2.64584,-0.75596 -0.25198,0 -0.5169,-0.0797 -0.75595,0 -0.16904,0.0564 -0.20894,0.32163 -0.37798,0.37798 -0.23905,0.0797 -0.53057,-0.11269 -0.75595,0 -0.31874,0.15937 -0.50397,0.50397 -0.75595,0.75595 -0.12599,0.12599 -0.27914,0.22972 -0.37798,0.37798 -0.15627,0.23441 -0.23303,0.51437 -0.37797,0.75595 -0.23372,0.38953 -0.66687,0.68848 -0.75596,1.13393 -0.0553,0.27626 0.25199,0.50397 0.37798,0.75595 0.12599,0.25198 0.15259,0.58692 0.37798,0.75595 0.31873,0.23906 0.75595,0.25199 1.13392,0.37798 0.37798,0.12599 0.73952,0.32163 1.13393,0.37798 1.1925,0.17035 1.88769,-0.0534 3.02381,-0.37798 0.85431,-0.24409 2.19526,-0.61075 2.64584,-1.51191 0.11269,-0.22538 0,-0.50396 0,-0.75595 0,-0.9802 0.17818,-0.7646 -0.75596,-1.5119 -1.6019,-1.28153 -1.96522,-0.96109 -4.53571,-1.51191 -1.1902,-0.25504 -2.18399,-0.55194 -3.40179,-0.37797 -0.39441,0.0563 -0.74324,0.29984 -1.13392,0.37797 -0.44282,0.0886 -1.37945,-0.21126 -1.13393,0.37798 0.60718,1.45724 1.5119,2.77182 2.26785,4.15774"
         style="fill:none;stroke:#000000;stroke-width:0.26458332px;stroke-linecap:butt;stroke-linejoin:miter;stroke-opacity:1" />
      <path
         inkscape:connector-curvature="0"
         id="path874"
         d="m 146.65476,145.43155 c -0.50397,-0.25199 -0.97737,-0.57777 -1.5119,-0.75595 -0.21658,-0.0722 -1.53503,0 -1.88989,0 -0.25198,0 -0.50396,0 -0.75595,0 -0.25198,0 -0.5169,-0.0797 -0.75595,0 -0.33279,0.11093 -0.68471,0.95582 -0.75595,1.13392 -0.52433,1.31082 -0.52433,1.71299 0,3.02381 0.10463,0.26158 0.17876,0.55675 0.37797,0.75596 0.19922,0.19921 0.48869,0.28888 0.75596,0.37797 1.93097,0.64366 2.63176,0.47599 4.53571,0 0.50397,-0.12599 1.03443,-0.17334 1.5119,-0.37797 0.85154,-0.36495 1.54232,-1.02098 1.88989,-1.88989 0.0936,-0.23396 0,-0.50396 0,-0.75595 0,-0.37797 0.22678,-0.83155 0,-1.13393 -0.23906,-0.31873 -0.76401,-0.23 -1.13393,-0.37797 -0.26158,-0.10463 -0.47423,-0.37798 -0.75596,-0.37798 -0.51947,0 -0.99242,0.37798 -1.5119,0.37798 -3.2254,0 -1.93524,-1.08857 -3.02381,0"
         style="fill:none;stroke:#000000;stroke-width:0.26458332px;stroke-linecap:butt;stroke-linejoin:miter;stroke-opacity:1" />
      <path
         inkscape:connector-curvature="0"
         id="path876"
         d="m 134.9375,147.6994 c -0.50397,-0.12599 -0.99243,-0.37797 -1.51191,-0.37797 -0.17818,0 -0.25198,0.25198 -0.37797,0.37797 -0.126,0.126 -0.25199,0.25199 -0.37798,0.37798 -0.12599,0.12599 -0.32163,0.20894 -0.37797,0.37798 -0.0797,0.23905 0,0.50397 0,0.75595 0,0.25198 -0.0494,0.50886 0,0.75595 0.25071,1.25359 0.35277,0.88195 0.75595,1.88988 0.14797,0.36993 0.13892,0.81519 0.37797,1.13393 0.18995,0.25327 1.79311,0.71724 1.88988,0.75595 0.26158,0.10463 0.47423,0.37798 0.75596,0.37798 0.39842,0 0.74092,-0.31248 1.13393,-0.37798 0.37283,-0.0621 0.77534,0.11953 1.13392,0 0.43096,-0.14365 0.72762,-0.55279 1.13393,-0.75595 0.35636,-0.17818 0.79229,-0.17299 1.13393,-0.37797 0.61267,-0.36761 1.45348,-1.469 1.13393,-2.26786 -0.16871,-0.42178 -0.47217,-0.77921 -0.75595,-1.13393 -1.05844,-1.32305 -0.50476,-0.37831 -2.26786,-1.13393 -0.41754,-0.17895 -0.69714,-0.63115 -1.13393,-0.75595 -1.28181,-0.36623 -1.53068,0.13016 -2.64583,0.37797 -0.74813,0.16626 -1.56345,0.0761 -2.26786,0.37798 -0.81106,0.3476 -0.10658,1.57015 0,1.88988 0.12599,0.37798 0.13182,0.82064 0.37798,1.13393 1.15718,1.47278 2.51984,2.77182 3.77976,4.15774"
         style="fill:none;stroke:#000000;stroke-width:0.26458332px;stroke-linecap:butt;stroke-linejoin:miter;stroke-opacity:1" />
      <path
         inkscape:connector-curvature="0"
         id="path878"
         d="m 118.68452,139.38393 c 0.50397,-0.12599 1.02958,-0.18505 1.51191,-0.37798 0.16543,-0.0662 0.21861,-0.29829 0.37797,-0.37797 0.11269,-0.0564 0.26529,0.0563 0.37798,0 0.15937,-0.0797 0.22972,-0.27914 0.37798,-0.37798 0.57046,-0.38031 2.01936,-1.00864 2.64583,-1.13393 0.24709,-0.0494 0.50397,0 0.75595,0 0.25198,0 0.50397,0 0.75595,0 0.126,0 0.27315,-0.0699 0.37798,0 0.59302,0.39535 0.94173,1.08427 1.5119,1.51191 2.14938,1.61203 -0.80264,-1.18063 1.51191,1.13392 0.44417,0.44417 1.38195,1.14581 1.13393,1.88989 -0.0891,0.26727 -0.30965,0.48263 -0.37798,0.75595 -0.0611,0.24446 0.11269,0.53057 0,0.75595 -0.15937,0.31874 -0.50397,0.50397 -0.75595,0.75595 -0.25198,0.25199 -0.47087,0.54214 -0.75595,0.75596 -0.22538,0.16903 -0.55675,0.17876 -0.75596,0.37797 C 126.77462,145.65693 127,146.60711 127,147.32143"
         style="fill:none;stroke:#000000;stroke-width:0.26458332px;stroke-linecap:butt;stroke-linejoin:miter;stroke-opacity:1" />
      <path
         inkscape:connector-curvature="0"
         id="path880"
         d="m 107.72321,144.6756 c 0,-2.77183 -0.23019,-5.55323 0,-8.31548 0.0514,-0.61721 1.15168,-0.86376 1.51191,-1.13393 0.28509,-0.21382 0.47086,-0.54214 0.75595,-0.75595 0.22538,-0.16904 0.50397,-0.25199 0.75595,-0.37798 0.25199,-0.12599 0.48264,-0.30964 0.75595,-0.37797 2.39059,-0.59765 -0.87868,0.59764 1.51191,0 0.27331,-0.0683 0.48264,-0.30965 0.75595,-0.37798 0.84374,-0.21094 0.7474,0.12314 1.51191,0.37798 0.11952,0.0398 0.26528,-0.0564 0.37797,0 0.32934,0.16466 0.69019,0.87086 0.75596,1.13392 0.0611,0.24447 -0.0611,0.5115 0,0.75596 0.54701,2.18805 0.37797,-0.99357 0.37797,1.88988 0,0.25198 0,0.50397 0,0.75595 0,0.37798 0.0917,0.76724 0,1.13393 -0.0432,0.17286 -0.32163,0.20894 -0.37797,0.37797 -0.0797,0.23906 0.0611,0.5115 0,0.75596 -0.0683,0.27331 -0.22171,0.52154 -0.37798,0.75595 -0.0988,0.14825 -0.52297,0.48154 -0.37798,0.37798 1.02524,-0.73232 2.01587,-1.51191 3.02381,-2.26786"
         style="fill:none;stroke:#000000;stroke-width:0.26458332px;stroke-linecap:butt;stroke-linejoin:miter;stroke-opacity:1" />
      <path
         inkscape:connector-curvature="0"
         id="path882"
         d="m 107.72321,144.6756 c 1.25992,1.13393 2.58118,2.2032 3.77976,3.40178 0.19922,0.19921 -0.47422,-0.37798 -0.75595,-0.37798 -0.28173,0 -0.48263,0.30965 -0.75595,0.37798 -0.24446,0.0611 -0.53057,-0.11269 -0.75595,0 -0.83015,0.41507 -0.8753,1.11398 -1.13393,1.88988 -0.12599,0.37798 -0.31248,0.74093 -0.37798,1.13393 -0.13006,0.78039 0.0871,1.96709 0.37798,2.64583 0.44948,1.0488 0.93643,1.34505 1.88988,1.88988 1.3242,0.75669 2.59424,1.35729 4.15774,1.13393 0.39441,-0.0563 0.75595,-0.25198 1.13393,-0.37797 0.92225,-0.30742 1.53514,-0.40121 2.26785,-1.13393 0.49067,-0.49067 0.37798,-0.91309 0.37798,-1.51191 0,-0.25198 0.0611,-0.51149 0,-0.75595 -0.26682,-1.06727 -1.23975,-1.71853 -2.26786,-1.88988 -0.37283,-0.0621 -0.75595,0 -1.13393,0 -0.37797,0 -0.75595,0 -1.13392,0 -0.25199,0 -0.50397,0 -0.75596,0 -0.12599,0 -0.26528,-0.0563 -0.37797,0 -0.15937,0.0797 -0.25199,0.25199 -0.37798,0.37798"
         style="fill:none;stroke:#000000;stroke-width:0.26458332px;stroke-linecap:butt;stroke-linejoin:miter;stroke-opacity:1" />
      <path
         inkscape:connector-curvature="0"
         id="path884"
         d="m 111.88095,151.47917 c -0.25198,0.75595 -0.36897,1.57129 -0.75595,2.26785 -0.2596,0.46728 -0.75595,0.75596 -1.13393,1.13393 -0.62996,0.62996 -1.25992,1.25992 -1.88988,1.88988 -3.54382,3.54383 -0.96222,1.07818 -4.91369,4.53572 -8.471544,7.4126 1.07251,-0.97581 -6.04762,5.66964 -0.979114,0.91384 -2.011706,1.76868 -3.023809,2.64583 -0.877802,0.76076 -1.824466,1.44649 -2.645833,2.26786 -4.524669,4.52467 0.674994,0.14846 -3.779763,4.15774 -0.599647,0.53968 -1.286912,0.97593 -1.889882,1.5119 -0.932212,0.82864 -1.763887,1.76389 -2.645833,2.64584 -0.125992,0.12599 -0.251984,0.25198 -0.377976,0.37797 -0.125992,0.126 -0.218607,0.2983 -0.377976,0.37798 -0.112691,0.0564 -0.377976,0.12599 -0.377976,0 0,-0.60834 0.986319,-0.30417 1.133928,-0.37798 0.05536,-0.0277 1.417611,-1.44455 1.511906,-1.5119 0.597812,-0.42701 1.295741,-0.70183 1.889881,-1.13393 3.019753,-2.19619 1.833494,-1.81789 4.913691,-4.53571 1.209852,-1.06752 2.525686,-2.00861 3.779761,-3.02381 8.249471,-6.67814 0.06917,-0.0109 8.315471,-7.18155 5.36669,-4.66669 3.65802,-2.75297 8.69346,-7.55953 1.41776,-1.35331 2.77182,-2.77182 4.15774,-4.15773 1.25991,-1.25992 2.55434,-2.48627 3.77976,-3.77977 1.04341,-1.10137 1.95102,-2.329 3.02381,-3.40178 0.94703,-0.94704 2.11247,-1.66439 3.02381,-2.64583 0.73749,-0.79422 1.20356,-1.807 1.88988,-2.64584 0.45132,-0.55161 1.04807,-0.97077 1.5119,-1.5119 0.29564,-0.34491 0.48339,-0.77051 0.75595,-1.13393 0.10691,-0.14254 0.1998,-0.37798 0.37798,-0.37798 0.12599,0 0.0891,0.28889 0,0.37798 -0.0891,0.0891 -0.28889,-0.0891 -0.37798,0 -0.0891,0.0891 0.0891,0.28889 0,0.37798 -0.17818,0.17818 -0.57777,-0.17818 -0.75595,0 -0.0891,0.0891 0.0564,0.26528 0,0.37797 -0.21666,0.43332 -0.78865,0.52577 -1.13393,0.75595 -0.38077,0.25385 -0.64988,0.86203 -0.75595,0.75596 -0.12599,-0.12599 0.21861,-0.29829 0.37798,-0.37798 0.11269,-0.0563 0.26528,0.0563 0.37797,0 0.15937,-0.0797 0.22973,-0.27914 0.37798,-0.37798 0.23441,-0.15627 0.53057,-0.20894 0.75595,-0.37797 0.28509,-0.21382 0.45038,-0.57261 0.75595,-0.75595 2.43528,-1.46117 -0.18997,0.91426 2.26786,-1.13393 0.41064,-0.34221 0.75595,-0.75596 1.13393,-1.13393 0.50397,-0.50397 1.00794,-1.00794 1.5119,-1.51191 0.37798,-0.37797 0.72808,-0.78605 1.13393,-1.13393 0.4783,-0.40997 1.02796,-0.73063 1.51191,-1.13392 0.27376,-0.22814 0.47086,-0.54214 0.75595,-0.75596 0.22538,-0.16903 0.55674,-0.17876 0.75595,-0.37797 0.0891,-0.0891 -0.26528,-0.0563 -0.37797,0 -0.15937,0.0797 -0.25199,0.25198 -0.37798,0.37797 -2.31455,2.31455 0.63748,-0.4781 -1.5119,1.13393 -0.28509,0.21382 -0.47769,0.53334 -0.75596,0.75595 -0.35472,0.28379 -0.78495,0.46514 -1.13393,0.75596 -0.41064,0.3422 -0.72328,0.79172 -1.13392,1.13393 -0.34898,0.29081 -0.76428,0.49191 -1.13393,0.75595 -1.25843,0.89887 -2.17111,1.66129 -3.40179,2.64583 -0.9673,0.77384 -3.3327,2.64551 -4.15774,3.40179 -3.31936,3.04275 -1.2061,1.6226 -4.91369,4.53571 -3.34508,2.62828 -1.90536,1.04492 -4.91369,3.77976 -0.65921,0.59929 -1.16002,1.37899 -1.88988,1.88988 -0.55584,0.38909 -1.436,0.25164 -1.88988,0.75596 -0.75386,0.83762 -0.93212,2.05749 -1.5119,3.02381 -0.18335,0.30557 -0.54214,0.47086 -0.75596,0.75595 -0.16903,0.22538 -0.2217,0.52154 -0.37797,0.75595 -0.0988,0.14826 -0.25199,0.25198 -0.37798,0.37798 -0.25198,0.25198 -0.50397,0.50397 -0.75595,0.75595 -0.12599,0.12599 -0.22972,0.27914 -0.37798,0.37798 -0.86864,0.57909 -0.75595,0.0315 -0.75595,0.75595"
         style="fill:none;stroke:#000000;stroke-width:0.26458332px;stroke-linecap:butt;stroke-linejoin:miter;stroke-opacity:1" />
      <path
         inkscape:connector-curvature="0"
         id="path886"
         d="m 147.78869,126.15476 c 0.62996,-0.50397 1.25992,-1.00793 1.88988,-1.5119 0.50397,-0.25199 1.06114,-0.41788 1.5119,-0.75596 0.57018,-0.42763 0.97922,-1.03839 1.51191,-1.5119 0.60297,-0.53597 1.25992,-1.00794 1.88988,-1.5119 0.62996,-0.50397 1.25308,-1.01662 1.88988,-1.51191 0.50397,-0.37798 1.00794,-0.75595 1.51191,-1.13393 0.37797,-0.37797 0.71652,-0.8 1.13392,-1.13392 0.86865,-0.69492 0.75596,0.0203 0.75596,-0.75596"
         style="fill:none;stroke:#000000;stroke-width:0.26458332px;stroke-linecap:butt;stroke-linejoin:miter;stroke-opacity:1" />
      <path
         inkscape:connector-curvature="0"
         id="path888"
         d="m 98.651784,216.11309 c 7.736466,1.28942 -2.482914,-0.28608 4.157736,0.37798 0.63925,0.0639 1.25992,0.25198 1.88988,0.37798 0.62996,0.12599 1.2934,0.13938 1.88988,0.37797 0.68211,0.27285 1.24494,0.78214 1.88989,1.13393 1.48396,0.80943 3.04739,1.46646 4.53571,2.26786 0.89437,0.48158 1.72535,1.08234 2.64583,1.5119 0.97549,0.45523 2.02433,0.73414 3.02381,1.13393 0.8909,0.35636 1.73555,0.8305 2.64584,1.13393 0.98564,0.32855 2.01993,0.48825 3.02381,0.75595 1.96992,0.52532 3.47497,0.91167 5.29166,1.88988 0.79995,0.43074 1.50136,1.02413 2.26786,1.51191 0.6198,0.39442 1.29574,0.70183 1.88988,1.13393 0.79582,0.57878 1.44909,1.34404 2.26786,1.88988 0.70323,0.46882 1.5378,0.70807 2.26785,1.13393 0.78478,0.45779 1.48308,1.05411 2.26786,1.5119 2.4087,1.40507 2.1927,1.05265 4.91369,1.88988 1.52322,0.46868 3.02381,1.00794 4.53572,1.51191 0.75595,0.25198 1.55514,0.39959 2.26785,0.75595 0.56346,0.28173 0.96122,0.82799 1.51191,1.13393 0.5931,0.3295 1.28302,0.45252 1.88988,0.75595 2.93458,1.46729 0.86954,0.6852 3.40178,2.26786 0.94168,0.58854 2.40616,1.11365 3.40179,1.5119 2.51984,1.00794 5.03968,2.01587 7.55952,3.02381 0.62997,0.25199 1.25992,0.50397 1.88988,0.75595 0.62996,0.25199 1.28303,0.45253 1.88989,0.75596 0.65709,0.32854 1.23278,0.80538 1.88988,1.13393 1.21371,0.60685 2.56604,0.90504 3.77976,1.5119 0.65709,0.32855 1.22107,0.82993 1.88988,1.13393 0.72542,0.32974 1.54244,0.42621 2.26786,0.75595 0.6688,0.304 1.25992,0.75595 1.88988,1.13393 0.75595,0.25198 1.52412,0.4699 2.26785,0.75595 0.89557,0.34445 1.75027,0.78948 2.64584,1.13393 0.74373,0.28605 1.53231,0.44947 2.26786,0.75595 2.87471,1.43736 1.48312,0.82004 4.15773,1.88988 1.25992,0.50397 2.53974,0.96079 3.77976,1.51191 0.51489,0.22884 0.99702,0.52711 1.51191,0.75595 0.62001,0.27556 1.29677,0.42645 1.88988,0.75594 0.55069,0.30594 1.00794,0.75597 1.51191,1.13393 0.50396,0.37798 1.0336,0.72398 1.5119,1.13395 0.40585,0.34787 0.75595,0.75594 1.13393,1.13393 0.25198,0.25198 0.54214,0.47085 0.75595,0.75594 0.16904,0.22539 0.25198,0.50397 0.37798,0.75596 0.12599,0.25197 0.37797,0.47422 0.37797,0.75594 0,0.28173 -0.25198,0.50398 -0.37797,0.75595"
         style="fill:none;stroke:#000000;stroke-width:0.26458332px;stroke-linecap:butt;stroke-linejoin:miter;stroke-opacity:1" />
    </g>
    <g
       id="g949"
       transform="translate(74.658899,-6.3993342)">
      <circle
         r="20"
         cy="29.850821"
         cx="366.23724"
         id="path910"
         style="opacity:1;fill:none;fill-opacity:0.89595379;stroke:#05eaff;stroke-width:0.5;stroke-linecap:round;stroke-linejoin:bevel;stroke-miterlimit:4;stroke-dasharray:none;stroke-dashoffset:0;stroke-opacity:0.14220186;paint-order:markers stroke fill" />
      <circle
         r="10"
         cy="29.850821"
         cx="366.23724"
         id="path914"
         style="opacity:1;fill:none;fill-opacity:0.89595379;stroke:#05eaff;stroke-width:0.5;stroke-linecap:round;stroke-linejoin:bevel;stroke-miterlimit:4;stroke-dasharray:none;stroke-dashoffset:0;stroke-opacity:0.14220186;paint-order:markers stroke fill" />
      <path
         sodipodi:nodetypes="cc"
         inkscape:connector-curvature="0"
         id="path910-3"
         d="m 356.23724,29.850821 c -0.18719,-21.7397183 30.1291,-19.092332 30,-1.5e-5"
         style="opacity:1;fill:none;fill-opacity:0.89595379;stroke:#000000;stroke-width:0.5;stroke-linecap:round;stroke-linejoin:bevel;stroke-miterlimit:4;stroke-dasharray:none;stroke-dashoffset:0;stroke-opacity:1;paint-order:markers stroke fill" />
      <use
         height="100%"
         width="100%"
         transform="matrix(1,0,0,-1,0,59.701642)"
         id="use940"
         xlink:href="#path910-3"
         y="0"
         x="0" />
      <ellipse
         cy="29.850821"
         cx="366.23724"
         id="path942"
         style="opacity:1;fill:none;fill-opacity:0.89595379;stroke:#000000;stroke-width:0.5;stroke-linecap:round;stroke-linejoin:bevel;stroke-miterlimit:4;stroke-dasharray:none;stroke-dashoffset:0;stroke-opacity:1;paint-order:markers stroke fill"
         r="3" />
    </g>
    <use
       x="0"
       y="0"
       xlink:href="#g949"
       id="use951"
       transform="translate(-97.119195,39.775838)"
       width="100%"
       height="100%" />
    <rect
       style="opacity:1;fill:none;fill-opacity:0.89595379;stroke:#000000;stroke-width:0.35355338;stroke-linecap:round;stroke-linejoin:bevel;stroke-miterlimit:4;stroke-dasharray:none;stroke-dashoffset:0;stroke-opacity:1;paint-order:markers stroke fill"
       id="rect953"
       width="4"
       height="100"
       x="333.6647"
       y="12.849771" />
    <use
       x="0"
       y="0"
       xlink:href="#g949"
       id="use951-6"
       transform="rotate(180,390.35199,101.99992)"
       width="100%"
       height="100%" />
    <rect
       style="opacity:1;fill:none;fill-opacity:0.89595379;stroke:#000000;stroke-width:0.35355338;stroke-linecap:round;stroke-linejoin:bevel;stroke-miterlimit:4;stroke-dasharray:none;stroke-dashoffset:0;stroke-opacity:1;paint-order:markers stroke fill"
       id="rect953-7"
       width="4"
       height="100"
       x="329.69522"
       y="130.17082" />
    <text
       xml:space="preserve"
       style="font-style:normal;font-variant:normal;font-weight:normal;font-stretch:normal;font-size:10.58333302px;line-height:100%;font-family:Almendra;-inkscape-font-specification:Almendra;letter-spacing:0px;word-spacing:0px;fill:#000000;fill-opacity:1;stroke:none;stroke-width:0.26458332"
       x="350.41373"
       y="24.388363"
       id="text975"><tspan
         sodipodi:role="line"
         id="tspan973"
         x="350.41373"
         y="24.388363"
         style="stroke-width:0.26458332">open</tspan></text>
    <text
       xml:space="preserve"
       style="font-style:normal;font-variant:normal;font-weight:normal;font-stretch:normal;font-size:10.58333302px;line-height:100%;font-family:Almendra;-inkscape-font-specification:Almendra;letter-spacing:0px;word-spacing:0px;fill:#000000;fill-opacity:1;stroke:none;stroke-width:0.26458332"
       x="343.43094"
       y="142.56273"
       id="text979"><tspan
         sodipodi:role="line"
         x="343.43094"
         y="142.56273"
         style="stroke-width:0.26458332"
         id="tspan981">closed</tspan></text>
    <rect
       style="opacity:1;fill:none;fill-opacity:0.89595379;stroke:#000000;stroke-width:0.5;stroke-linecap:round;stroke-linejoin:bevel;stroke-miterlimit:4;stroke-dasharray:none;stroke-dashoffset:0;stroke-opacity:1;paint-order:markers stroke fill"
       id="rect1064"
       width="3.701905"
       height="157.99083"
       x="181.97092"
       y="42.306499" />
    <path
       style="fill:none;stroke:#000000;stroke-width:0.26458332px;stroke-linecap:butt;stroke-linejoin:miter;stroke-opacity:1"
       d="m 238.37213,7.2702134 c 0,1.1239889 0,2.247978 0,3.3719676 0,0.345842 -0.0489,0.695161 0,1.037528 0.0387,0.270665 0.22072,0.507481 0.25939,0.778146 0.0489,0.342367 -0.0429,0.694356 0,1.037528 0.26664,2.133136 0.31272,-0.13803 0.51876,2.334439 0.0503,0.603134 -0.0464,1.212232 0,1.815675 0.0403,0.52437 0.21904,1.031921 0.25938,1.556292 0.0464,0.603442 0,1.21045 0,1.815675 0,1.642753 0,3.285506 0,4.928259 0,0.518763 -0.047,1.039659 0,1.556293 0.0399,0.439054 0.21947,0.857855 0.25938,1.29691 0.0939,1.033267 -0.0939,2.079318 0,3.112585 0.0399,0.439055 0.21552,0.858234 0.25939,1.296911 0.28528,2.85279 -0.37571,-0.264097 0.25938,2.593821 0.15466,0.695995 0.34584,1.383372 0.51876,2.075056 0.0865,0.345842 0.20897,0.684625 0.25938,1.037529 0.0367,0.256776 -0.0367,0.52137 0,0.778145 0.0504,0.352904 0.20897,0.684625 0.25939,1.037529 0.0847,0.593119 -0.0847,1.222555 0,1.815674 0.0387,0.270666 0.20576,0.510043 0.25938,0.778148 0.0678,0.339127 0,0.691684 0,1.037526 0,0.605227 0,1.21045 0,1.815677 0,1.815674 0,3.631348 0,5.447022 0,0.691687 0,1.383371 0,2.075058 0,0.345842 -0.0429,0.694354 0,1.037527 0.0442,0.353734 0.21516,0.683794 0.25938,1.037529 0.0429,0.343172 0,0.691684 0,1.037529 0,0.345842 0,0.691684 0,1.037526 0,1.556293 0,3.112585 0,4.66888 0,1.123987 0,2.247977 0,3.371966 0,0.345843 0,0.691685 0,1.037527 0,0.432305 0.0536,0.867947 0,1.296911 -0.0339,0.271301 -0.21443,0.508455 -0.25938,0.778147 -0.0426,0.255852 0,0.518763 0,0.778145 0,0.432305 0,0.864608 0,1.296911 0,0.259381 0.0509,0.523801 0,0.778147 -0.0379,0.189577 -0.22147,0.329187 -0.25938,0.518764 -0.0848,0.423907 0,0.864608 0,1.29691 0,0.393393 0.058,1.726803 0,2.075056 -0.045,0.269692 -0.21444,0.508455 -0.25939,0.778147 -0.0426,0.255852 0.0427,0.522293 0,0.778145 -0.18829,1.129763 -0.33047,0.426532 -0.51876,1.556293 -0.0711,0.426423 0,0.864608 0,1.29691 0,0.951069 0,1.902138 0,2.853204 0,0.951068 0,1.902137 0,2.853203 0,0.259381 0.0367,0.521372 0,0.778147 -0.0504,0.352904 -0.25938,0.68104 -0.25938,1.037527 0,0.273412 0.20576,0.510045 0.25938,0.778147 0.0848,0.423908 -0.0711,0.87049 0,1.296911 0.045,0.269692 0.21443,0.508452 0.25938,0.778145 0.0426,0.255855 0,0.518766 0,0.778147 0,0.132292 0,1.551091 0,1.815674 0,1.469832 0,2.939664 0,4.409496 0,0.691684 0,1.383371 0,2.075055 0,0.345845 -0.0429,0.694357 0,1.037527 0.0442,0.35374 0.22002,0.68323 0.25938,1.03753 0.0764,0.68746 0,1.38337 0,2.07506 0,1.55629 0,3.11258 0,4.66887 0,3.28551 0,6.57102 0,9.85652 0,0.86461 0,1.72922 0,2.59383 0,0.34584 0,0.69168 0,1.03752 0,0.25938 -0.0426,0.5223 0,0.77815 0.045,0.26969 0.22072,0.50748 0.25939,0.77814 0.0489,0.34237 0,0.69169 0,1.03753 0,0.25939 0.0367,0.52138 0,0.77815 -0.0504,0.35291 -0.21517,0.6838 -0.25939,1.03753 -0.0429,0.34317 0,0.69169 0,1.03753 0,0.77814 0,1.55629 0,2.33444 0,2.72606 -0.0839,-0.67104 0.25939,2.07505 0.0429,0.34318 -0.0429,0.69436 0,1.03753 0.0442,0.35373 0.20896,0.68462 0.25938,1.03753 0.0367,0.25677 0,0.51876 0,0.77815 0,0.4323 0,0.8646 0,1.29691 0,0.34584 -0.0429,0.69435 0,1.03752 0.0442,0.35374 0.22001,0.68323 0.25938,1.03753 0.0477,0.42966 0,0.86461 0,1.29691 0,0.77815 0,1.5563 0,2.33444 0,0.34585 -0.0429,0.69436 0,1.03753 0.0442,0.35373 0.21516,0.68379 0.25938,1.03753 0.0429,0.34317 0,0.69168 0,1.03753 0,1.03752 0,2.07505 0,3.11258 0,0.34584 -0.0429,0.69436 0,1.03753 0.0442,0.35373 0.21517,0.68379 0.25938,1.03753 0.0429,0.34317 -0.0429,0.69435 0,1.03753 0.0442,0.35373 0.21517,0.68379 0.25939,1.03752 0.0429,0.34318 -0.0429,0.69436 0,1.03753 0.0442,0.35374 0.21516,0.6838 0.25938,1.03753 0.0429,0.34317 0,0.69169 0,1.03753 0,1.12399 0,2.24798 0,3.37197 0,2.33443 0,4.66887 0,7.00331 0,0.77815 0,1.5563 0,2.33444 0,0.34584 -0.0489,0.69516 0,1.03753 0.0387,0.27066 0.21443,0.50845 0.25938,0.77815 0.0218,0.13063 0.0408,1.61176 0,1.81567 -0.0536,0.2681 -0.21443,0.50845 -0.25938,0.77815 -0.0426,0.25585 0,0.51876 0,0.77814 0,0.51877 0,1.03753 0,1.5563 0,0.25938 0.0426,0.52229 0,0.77814 -0.045,0.26969 -0.21443,0.50846 -0.25938,0.77815 -0.0427,0.25585 0.0509,0.5238 0,0.77814 -0.0379,0.18958 -0.22147,0.32919 -0.25939,0.51877 -0.0848,0.42391 0.10485,0.87751 0,1.29691 -0.0469,0.18756 -0.19824,0.33535 -0.25938,0.51876 -0.0547,0.16405 0,0.34585 0,0.51877 0,0.18041 0.0469,1.20311 0,1.29691 -0.0547,0.10936 -0.22071,0.14338 -0.25938,0.25938 -0.0547,0.16405 0,0.34584 0,0.51876 0,0.22013 0.0477,1.4133 0,1.5563 -0.0387,0.116 -0.2047,0.15001 -0.25938,0.25938 -0.26795,0.53589 -0.25938,0.78589 -0.25938,1.29691 0,0.4323 0,0.86461 0,1.29691 0,0.17292 0,0.34584 0,0.51876 0,0.0865 0.0865,0.25939 0,0.25939 -0.12228,0 -0.17292,-0.17293 -0.25939,-0.25939 -0.25938,0.51877 -0.57449,1.01323 -0.77814,1.5563 -0.21073,0.56195 0.15827,0.53196 0.25938,1.03753 0.0509,0.25434 -0.0509,0.5238 0,0.77814 0.0379,0.18958 0.25938,0.32544 0.25938,0.51877 0,0.27341 -0.25938,0.50473 -0.25938,0.77814 0,0.19334 0.22147,0.32919 0.25938,0.51877 0.1956,0.97796 -0.12414,0.60965 -0.25938,1.55629 -0.0489,0.34237 0,0.69169 0,1.03753 0,0.95107 0,1.90213 0,2.8532 0,0.43231 0.0477,0.86725 0,1.29691 -0.0394,0.35431 -0.17292,0.69169 -0.25938,1.03753 -0.0865,0.34584 -0.22001,0.68322 -0.25938,1.03753 0,3.42018 0.10485,-0.57941 -0.25938,2.33444 -0.0429,0.34317 0,0.69168 0,1.03753 0,0.69168 0,1.38337 0,2.07505 0,0.25938 0.0367,0.52137 0,0.77815 -0.0504,0.3529 -0.25939,0.68104 -0.25939,1.03753 0,0.27341 0.22072,0.50748 0.25939,0.77814 0.0489,0.34237 0,0.69169 0,1.03753 0,0.25938 0,0.51877 0,0.77815 0,0.25938 -0.0367,0.52137 0,0.77814 0.0504,0.35291 0.20896,0.68463 0.25938,1.03753 0.0367,0.25678 0,0.51877 0,0.77815 0,0.77815 0,1.55629 0,2.33444 0,0.34584 -0.0489,0.69516 0,1.03753 0.0387,0.27066 0.21443,0.50845 0.25938,0.77814 0.0426,0.25586 -0.0367,0.52137 0,0.77815 0.10083,0.70581 0.41794,1.36925 0.51876,2.07506 0.0367,0.25677 0,0.51876 0,0.77814 0.0865,0.25938 0.21444,0.50846 0.25939,0.77815 0.0426,0.25585 -0.0509,0.5238 0,0.77814 0.0379,0.18958 0.22146,0.32919 0.25938,0.51877 0.0848,0.42391 -0.10485,0.87751 0,1.29691 0.15696,0.62784 0.39057,0.52075 0.77815,1.03753 0.18143,0.24191 0.48139,1.07272 0.51876,1.29691 0.0711,0.42642 0,0.8646 0,1.29691 0,0.69168 0,1.38337 0,2.07505 0,0.25939 -0.0509,0.52381 0,0.77815 0.0379,0.18958 0.21249,0.33121 0.25938,0.51876 0.0419,0.16776 0,0.34585 0,0.51877 0,0.4323 -0.0711,0.87049 0,1.29691 0.045,0.26969 0.21443,0.50845 0.25938,0.77815 0.0427,0.25585 0,0.51876 0,0.77814 0,0.25938 0,0.51877 0,0.77815 0,0.69168 0,1.38337 0,2.07505 0,0.77815 0,1.5563 0,2.33444 0,0.25939 0.0509,0.5238 0,0.77815 -0.0379,0.18958 -0.22146,0.32919 -0.25938,0.51876 -0.0509,0.25435 0,0.51877 0,0.77815 0,0.25938 0,0.51876 0,0.77815 0,0.69168 0,1.38337 0,2.07505 0,0.25939 0,0.51877 0,0.77815 0,0.17292 0.0547,0.35472 0,0.51876 -0.0387,0.116 -0.2047,0.15002 -0.25938,0.25939 -0.0266,0.0532 -0.0366,0.74156 0,0.77814 0.0611,0.0611 0.22072,-0.0773 0.25938,0 0.0773,0.15467 0,0.34584 0,0.51877 0,0.4323 0,0.8646 0,1.29691 0,0.60829 -0.0611,-0.12228 0.25938,0.51876 0.0387,0.0773 0,0.17292 0,0.25938 0,0.0865 0,0.17292 0,0.25938 0,0.30275 -0.0506,1.35393 0,1.5563 0.0469,0.18756 0.25939,0.32543 0.25939,0.51876 0,0.19333 -0.2125,0.33121 -0.25939,0.51877 -0.0117,0.0468 -0.0356,1.48512 0,1.55629 0.0547,0.10936 0.2047,0.15002 0.25939,0.25938 0.0387,0.0773 0,0.17292 0,0.25938 0,0.17292 0,0.34585 0,0.51877 0,0.17292 0,0.34584 0,0.51876 0,0.0865 0.0273,0.17736 0,0.25938 -0.0611,0.18341 -0.22147,0.32919 -0.25939,0.51877 -0.0848,0.42391 0,0.8646 0,1.29691 0,1.03753 0,2.07505 0,3.11258 0,0.7193 0.0387,-0.41405 -0.25938,0.77815 -0.0419,0.16776 0,0.34584 0,0.51876 0,0.51877 0,1.03753 0,1.5563 0,0.17292 0,0.34584 0,0.51876 0,0.17292 0.0773,0.3641 0,0.51876 -0.0387,0.0773 -0.17292,0 -0.25938,0 -0.0865,0 -0.17292,0 -0.25938,0"
       id="path1068"
       inkscape:connector-curvature="0" />
    <rect
       style="opacity:1;fill:none;fill-opacity:0.89595379;stroke:#000000;stroke-width:0.41255513;stroke-linecap:round;stroke-linejoin:bevel;stroke-miterlimit:4;stroke-dasharray:none;stroke-dashoffset:0;stroke-opacity:1;paint-order:markers stroke fill"
       id="rect1070"
       width="6.0561361"
       height="184.28307"
       x="172.12112"
       y="27.120852" />
    <rect
       style="opacity:1;fill:none;fill-opacity:0.89595379;stroke:#000000;stroke-width:0.5;stroke-linecap:round;stroke-linejoin:bevel;stroke-miterlimit:4;stroke-dasharray:none;stroke-dashoffset:0;stroke-opacity:1;paint-order:markers stroke fill"
       id="rect1072"
       width="61.789505"
       height="6.0875721"
       x="178.1389"
       y="27.120852" />
    <rect
       style="opacity:1;fill:none;fill-opacity:0.89595379;stroke:#000000;stroke-width:0.5;stroke-linecap:round;stroke-linejoin:bevel;stroke-miterlimit:4;stroke-dasharray:none;stroke-dashoffset:0;stroke-opacity:1;paint-order:markers stroke fill"
       id="rect1072-3"
       width="61.402546"
       height="7.8561406"
       x="178.26651"
       y="203.54778" />
    <path
       style="fill:none;stroke:#000000;stroke-width:0.26458332px;stroke-linecap:butt;stroke-linejoin:miter;stroke-opacity:1"
       d="m 210.18881,-0.49236574 -21.73465,0.10743944 -33.84739,22.7613763 -0.31636,45.282597 17.05372,-0.0426 0.036,-8.88779 -8.96511,-0.203592 0.32716,-16.402558 8.63914,0.08648 0.1238,-15.574478 8.51433,-0.09727 30.16939,-16.7586002 V -0.49236774 Z"
       id="path1093"
       inkscape:connector-curvature="0"
       sodipodi:nodetypes="cccccccccccccc" />
    <g
       id="g870">
      <path
         sodipodi:nodetypes="ccccc"
         inkscape:connector-curvature="0"
         id="rect866"
         d="m 430.96536,66.546043 h 20.4815 l 8.04084,15 -28.52234,0 z"
         style="opacity:1;fill:none;fill-opacity:0.89595379;stroke:#000000;stroke-width:0.39485499;stroke-linecap:round;stroke-linejoin:bevel;stroke-miterlimit:4;stroke-dasharray:none;stroke-dashoffset:0;stroke-opacity:1;paint-order:markers stroke fill" />
      <rect
         style="opacity:1;fill:none;fill-opacity:0.89595379;stroke:#00c3fe;stroke-width:0.5;stroke-linecap:round;stroke-linejoin:bevel;stroke-miterlimit:4;stroke-dasharray:none;stroke-dashoffset:0;stroke-opacity:0.27179489;paint-order:markers stroke fill"
         id="rect864"
         width="3.7019043"
         height="16.272264"
         x="437.63678"
         y="65.978691" />
    </g>
    <use
       x="0"
       y="0"
       xlink:href="#g870"
       id="use872"
       transform="matrix(-1,0,0,1,623.3096,-23.672192)"
       width="100%"
       height="100%" />
    <use
       x="0"
       y="0"
       xlink:href="#g870"
       id="use872-3"
       transform="matrix(1,0,0,-1,-255.66586,266.27602)"
       width="100%"
       height="100%" />
    <path
       style="fill:none;stroke:#000000;stroke-width:0.26458332px;stroke-linecap:butt;stroke-linejoin:miter;stroke-opacity:1"
       d="m 185.71757,63.945194 c -0.0865,0.172921 -0.19824,0.335354 -0.25938,0.518764 -0.0273,0.08202 0,0.172921 0,0.259381 0,0.172924 -0.0339,0.349203 0,0.518766 0.0268,0.134051 0.10722,0.254225 0.12969,0.389072 0.0213,0.127927 -0.0254,0.261901 0,0.389073 0.0189,0.09479 0.0938,0.16963 0.12969,0.259382 0.0508,0.126928 0.0865,0.259384 0.12969,0.389075 0.0432,0.12969 0.0921,0.257624 0.12969,0.389072 0.049,0.171384 0.0595,0.354933 0.12969,0.518763 0.0614,0.143267 0.18205,0.253741 0.25939,0.389075 0.0959,0.167857 0.16346,0.350904 0.25938,0.518764 0.0773,0.135331 0.18967,0.249658 0.25938,0.389072 0.0611,0.122275 0.0686,0.266801 0.12969,0.389072 0.16361,0.327208 0.27751,0.4072 0.51877,0.648457 0.0432,0.04323 0.0865,0.08646 0.12969,0.129691 0.0432,0.04323 0.0686,0.129691 0.12969,0.129691 0.0611,0 0.0865,-0.08646 0.12969,-0.129691 0.22636,-0.226356 0.11036,-0.07169 0.25938,-0.518763 0.15657,-0.469715 0.26902,-0.946362 0.38908,-1.426602 0.0432,-0.172921 0.10758,-0.341897 0.12969,-0.518766 0.0215,-0.171585 -0.0191,-0.3469 0,-0.518763 0.0243,-0.219083 0.10534,-0.429371 0.12969,-0.648454 0.0536,-0.482544 -0.0133,-0.572071 -0.12969,-1.037529 -0.13018,-0.52069 -0.17499,-0.867185 -0.51877,-1.296911 -0.0764,-0.09548 -0.17292,-0.172921 -0.25938,-0.259382 -0.0432,-0.04323 -0.075,-0.102351 -0.12969,-0.12969 -0.0387,-0.01934 -0.091,0.01934 -0.12969,0 -0.0547,-0.02734 -0.0686,-0.129691 -0.12969,-0.129691 -0.0611,0 -0.0865,0.08646 -0.12969,0.129691 -0.24732,0.247316 -0.27771,0.444031 -0.38908,0.778145 -0.23673,0.710184 -0.0963,0.07444 0,1.037529 0.10167,1.016685 -0.14607,0.285776 0.12969,1.29691 0.72672,2.664609 -0.17739,-0.893923 0.51877,1.426602 0.41417,1.380588 -0.17213,0.05542 0.38907,1.037526 0.59442,1.040231 -0.0594,0.214802 0.51877,0.648457 0.0629,0.04716 0.21739,0.345223 0.38907,0.259382 0.0547,-0.02734 0.0865,-0.08646 0.12969,-0.129691 0.0432,-0.04323 0.0865,-0.08646 0.12969,-0.129691 0.0865,-0.08646 0.19647,-0.154532 0.25938,-0.259381 0.0703,-0.117227 0.0686,-0.266801 0.12969,-0.389076 0.28462,-0.569229 0.2914,-0.225726 0.51877,-0.907835 0.0697,-0.209122 0.0865,-0.432303 0.12969,-0.648457 0.0432,-0.216151 0.10776,-0.429114 0.12969,-0.648454 0.0215,-0.21508 -0.0239,-0.433626 0,-0.648454 0.17163,-1.544677 0.12969,0.492009 0.12969,-1.037529 0,-0.172921 0.0475,-0.352497 0,-0.518766 -0.0428,-0.149871 -0.18967,-0.249658 -0.25938,-0.389072 -0.0611,-0.122275 -0.0539,-0.275326 -0.12969,-0.389073 -0.10174,-0.152606 -0.25938,-0.259382 -0.38908,-0.389072 -0.0865,-0.08646 -0.16156,-0.186018 -0.25938,-0.259382 -0.0773,-0.058 -0.17895,-0.07607 -0.25938,-0.129693 -0.0509,-0.03391 -0.0717,-0.110358 -0.12969,-0.129691 -0.082,-0.02734 -0.17292,0 -0.25938,0 -0.0432,0 -0.0887,-0.01368 -0.12969,0 -0.0917,0.03057 -0.20577,0.04926 -0.25939,0.129691 -0.048,0.07194 0,0.172923 0,0.259384 0,0.259381 0,0.518763 0,0.778145 0,0.216151 0,0.432302 0,0.648456 0,0.172922 -0.0191,0.346901 0,0.518764 0.0991,0.891807 0.12836,0.427871 0.38908,1.29691 0.17617,0.587262 0.0469,0.749507 0.38907,1.296911 0.0972,0.15553 0.26971,0.249817 0.38907,0.389073 0.23973,0.279677 0.45634,0.693295 0.77815,0.907838 0.11375,0.07583 0.25938,0.08646 0.38907,0.129691 0.12969,0.04323 0.25237,0.129691 0.38908,0.129691 0.0967,0 0.18205,-0.07169 0.25938,-0.129691 0.35577,-0.26683 0.27294,-0.313635 0.38907,-0.778148 0.22939,-0.917567 0.0474,-0.130953 0.25938,-1.296911 0.0394,-0.216876 0.10974,-0.428926 0.12969,-0.648454 0.0235,-0.258318 -0.0235,-0.519829 0,-0.778147 0.0199,-0.219528 0.12969,-0.428022 0.12969,-0.648454 0,-0.178245 -0.10448,-0.342313 -0.12969,-0.518766 -0.0183,-0.128386 0.041,-0.266036 0,-0.389072 -0.0493,-0.147871 -0.17292,-0.259382 -0.25938,-0.389073 -0.0865,-0.129691 -0.14916,-0.278857 -0.25938,-0.389072 -0.0683,-0.06836 -0.17649,-0.07996 -0.25938,-0.129691 -0.13366,-0.0802 -0.24436,-0.201494 -0.38907,-0.259384 -0.0803,-0.03211 -0.17293,0 -0.25939,0 -0.0865,0 -0.17736,-0.02734 -0.25938,0 -0.058,0.01934 -0.0865,0.08646 -0.12969,0.129693 -0.0865,0.08646 -0.19156,0.157644 -0.25938,0.259382 -0.024,0.03597 0.0105,0.08775 0,0.12969 -0.0332,0.132626 -0.0921,0.257628 -0.12969,0.389073 -0.19454,0.680879 -0.15131,0.35665 0,1.037529 0.16281,0.732642 0.0854,0.667454 0.38907,1.426602 0.17769,0.444219 0.41341,0.74414 0.64846,1.167217 0.0939,0.169003 0.15691,0.354819 0.25938,0.518766 0.35199,0.563181 0.86341,1.074613 1.4266,1.426601 0.081,0.05065 0.73133,0.389073 0.90783,0.389073 0.26587,0 0.42011,-0.370779 0.51877,-0.518763 0.0865,-0.129691 0.20465,-0.243129 0.25938,-0.389076 0.0774,-0.206396 0.0865,-0.432302 0.12969,-0.648454 0.0432,-0.216151 0.0865,-0.432302 0.12969,-0.648454 0.17209,-0.860411 0.12969,-0.428024 0.12969,-1.29691 0,-0.172921 0.0245,-0.347581 0,-0.518766 -0.0193,-0.135332 -0.0865,-0.259382 -0.12969,-0.389073 -0.17898,-0.536942 -0.0538,-0.275325 -0.38907,-0.778145 -0.32721,-0.490812 -0.14917,-0.278857 -0.51876,-0.648456 -0.0432,-0.04323 -0.0865,-0.08646 -0.1297,-0.129691 -0.0432,-0.04323 -0.0717,-0.110358 -0.12969,-0.129691 -0.082,-0.02734 -0.17292,0 -0.25938,0 -0.0865,0 -0.17736,-0.02734 -0.25938,0 -0.058,0.01934 -0.0865,0.08646 -0.12969,0.129691 -0.0432,0.04323 -0.11036,0.07169 -0.12969,0.129691 -0.0273,0.08202 0,0.172921 0,0.259381 0,0.129691 0,0.259382 0,0.389075 0,0.172922 -0.0215,0.347176 0,0.518764 0.0221,0.176866 0.091,0.344765 0.12969,0.518763 0.21918,0.98633 0.002,0.328046 0.38907,1.296911 0.13665,0.341619 0.31682,0.844113 0.51877,1.16722 0.27728,0.443661 0.42446,0.554151 0.77814,0.907838 0.36123,0.361225 0.73141,0.778145 1.29691,0.778145 0.0967,0 0.18205,-0.07169 0.25939,-0.129691 0.41008,-0.307562 0.55298,-0.819555 0.64845,-1.296911 0.10314,-0.515707 0.1653,-1.038854 0.25938,-1.556292 0.16361,-0.899822 0.12969,-0.363852 0.12969,-1.16722 0,-0.172921 0,-0.345842 0,-0.518763 0,-0.129691 0.0213,-0.261147 0,-0.389073 -0.0724,-0.43439 -0.35123,-0.740309 -0.64845,-1.037529 -0.0865,-0.08646 -0.1639,-0.182999 -0.25938,-0.259382 -0.26084,-0.208668 -0.37908,-0.254381 -0.64846,-0.389072 -0.0865,-0.04323 -0.1656,-0.106246 -0.25938,-0.129693 -0.0839,-0.02098 -0.17292,0 -0.25938,0 -0.19304,0 -0.18487,-0.03867 -0.25939,0.259384 -0.021,0.08388 0.0142,0.174096 0,0.259381 -0.0293,0.175819 -0.12969,0.340522 -0.12969,0.518764 0,0.178244 0.11001,0.341611 0.12969,0.518763 0.0239,0.214831 -0.0215,0.433377 0,0.648457 0.0413,0.41326 0.28342,1.212918 0.38908,1.556292 0.0804,0.261321 0.15422,0.525764 0.25938,0.778145 0.11154,0.267692 0.26907,0.514144 0.38907,0.778147 0.0963,0.211937 0.13025,0.454753 0.25939,0.648454 0.13565,0.203478 0.34584,0.345845 0.51876,0.518766 0.4255,0.425498 0.29823,0.431676 0.90784,0.518764 0.73271,0.104674 1.20551,-0.374261 1.4266,-1.03753 0.0697,-0.209118 0.0865,-0.432302 0.12969,-0.648454 0.22831,-1.141539 0.0449,-0.162131 0.25938,-1.556292 0.11903,-0.773684 0.33845,-1.543799 0.25938,-2.33444 -0.0177,-0.177358 -0.0807,-0.347377 -0.12969,-0.518763 -0.10654,-0.372893 -0.13645,-0.462373 -0.38907,-0.778145 -0.23816,-0.297701 -0.51276,-0.46809 -0.90784,-0.389075 -0.0948,0.01897 -0.17292,0.08646 -0.25938,0.129691 -0.0865,0.04323 -0.19103,0.06134 -0.25938,0.129691 -0.0683,0.06836 -0.0865,0.172923 -0.12969,0.259384 -0.20941,0.418806 -0.10625,0.1656 -0.25938,0.778145 -0.10638,0.425479 -0.22155,0.707943 -0.1297,1.16722 0.0457,0.228282 0.19249,0.425471 0.25939,0.648454 0.34009,1.133639 -0.13448,0.170082 0.38907,1.426601 0.11154,0.267692 0.26907,0.514144 0.38907,0.778148 0.0963,0.211936 0.13025,0.454752 0.25939,0.648454 0.13564,0.203478 0.34584,0.345845 0.51876,0.518766 0.5031,0.503102 0.78322,0.888584 1.55629,0.778145 0.57333,-0.08191 0.82515,-0.559684 1.03753,-1.03753 0.0945,-0.212735 0.19813,-0.423854 0.25938,-0.648454 0.0692,-0.253693 0.0865,-0.518763 0.12969,-0.778147 0.0432,-0.259382 0.0897,-0.518242 0.12969,-0.778145 0.0465,-0.30213 0.0794,-0.606311 0.12969,-0.907838 0.0362,-0.217432 0.10776,-0.429117 0.12969,-0.648454 0.0531,-0.530575 0.009,-0.682948 -0.12969,-1.16722 -0.0376,-0.131445 -0.0593,-0.271849 -0.12969,-0.389073 -0.14045,-0.234098 -0.29807,-0.278728 -0.51876,-0.389072 -0.0865,-0.04323 -0.16768,-0.09912 -0.25938,-0.129691 -0.0167,-0.0056 -0.37833,-0.0054 -0.38908,0 -0.12621,0.06311 -0.36485,0.397664 -0.38907,0.518763 -0.0254,0.127172 0,0.259382 0,0.389073 0,0.129691 0,0.259381 0,0.389072 0,0.803368 -0.0339,0.267401 0.12969,1.16722 0.047,0.25872 0.0465,0.52868 0.12969,0.778148 0.0917,0.275116 0.26907,0.514141 0.38907,0.778144 0.0963,0.211937 0.14791,0.44408 0.25939,0.648457 0.30388,0.55712 0.57331,0.89072 1.03753,1.296911 0.3908,0.341955 0.98817,0.810776 1.55629,0.648454 0.14987,-0.04282 0.26736,-0.162012 0.38907,-0.259382 0.0955,-0.07639 0.19156,-0.157644 0.25938,-0.259381 0.12578,-0.188664 0.47384,-0.987491 0.51877,-1.16722 0.0741,-0.296558 0.0832,-0.605708 0.12969,-0.907839 0.12495,-0.812143 0.34229,-1.635069 0.25938,-2.464128 -0.0177,-0.17736 -0.0865,-0.345844 -0.12969,-0.518765 -0.008,-0.03389 -0.19173,-0.823265 -0.25938,-0.907836 -0.0974,-0.121714 -0.25938,-0.172921 -0.38907,-0.259384 -0.21887,-0.145908 -0.8741,-0.616472 -1.16722,-0.518764 -0.27657,0.09219 -0.30764,0.177946 -0.51877,0.389073 -0.0865,0.08646 -0.2047,0.150019 -0.25938,0.259384 -0.18212,0.364231 -0.12969,0.782214 -0.12969,1.167217 0,0.259382 -0.0426,0.522296 0,0.778148 0.045,0.269692 0.20209,0.510802 0.25938,0.778145 0.073,0.340799 0.0195,0.706882 0.12969,1.037529 0.11022,0.33065 0.37138,0.592002 0.51877,0.907838 0.15619,0.334706 0.23429,0.702165 0.38907,1.037527 0.14489,0.313923 0.56979,0.998196 0.90784,1.16722 0.15466,0.07733 0.35685,0.06072 0.51876,0 0.48567,-0.182126 0.59004,-0.484593 0.77815,-0.907836 0.27993,-0.629854 0.45882,-1.247836 0.38907,-1.945368 -0.0665,-0.665202 -0.20485,-0.751101 -0.38907,-1.426601 -0.15419,-0.565343 -0.0847,-0.643139 -0.25938,-1.16722 -0.0306,-0.09171 -0.0432,-0.216151 -0.1297,-0.259382 -0.0547,-0.02734 -0.0958,0.07882 -0.12969,0.129691 -0.12722,0.190828 -0.18908,0.43755 -0.25938,0.648457"
       id="path913"
       inkscape:connector-curvature="0" />
    <use
       x="0"
       y="0"
       xlink:href="#path913"
       id="use915"
       transform="translate(0.22969843,110.36708)"
       width="100%"
       height="100%" />
  </g>
</svg>
