<?xml version="1.0" encoding="UTF-8" standalone="no"?>
<svg
   xmlns:dc="http://purl.org/dc/elements/1.1/"
   xmlns:cc="http://creativecommons.org/ns#"
   xmlns:rdf="http://www.w3.org/1999/02/22-rdf-syntax-ns#"
   xmlns:svg="http://www.w3.org/2000/svg"
   xmlns="http://www.w3.org/2000/svg"
   xmlns:sodipodi="http://sodipodi.sourceforge.net/DTD/sodipodi-0.dtd"
   xmlns:inkscape="http://www.inkscape.org/namespaces/inkscape"
   width="297mm"
   height="210mm"
   viewBox="0 0 2970 2100"
   version="1.2"
   id="svg388"
   sodipodi:docname="windrose_A4_CAM.svg"
   inkscape:version="0.92.2 (5c3e80d, 2017-08-06)">
  <metadata
     id="metadata392">
    <rdf:RDF>
      <cc:Work
         rdf:about="">
        <dc:format>image/svg+xml</dc:format>
        <dc:type
           rdf:resource="http://purl.org/dc/dcmitype/StillImage" />
      </cc:Work>
    </rdf:RDF>
  </metadata>
  <sodipodi:namedview
     pagecolor="#ffffff"
     bordercolor="#666666"
     borderopacity="1"
     objecttolerance="10"
     gridtolerance="10"
     guidetolerance="10"
     inkscape:pageopacity="0"
     inkscape:pageshadow="2"
     inkscape:window-width="1920"
     inkscape:window-height="1015"
     id="namedview390"
     showgrid="false"
     inkscape:zoom="1.1687991"
     inkscape:cx="621.39093"
     inkscape:cy="327.66041"
     inkscape:window-x="0"
     inkscape:window-y="0"
     inkscape:window-maximized="1"
     inkscape:current-layer="svg388" />
  <title
     id="title2">FreeCAD SVG Export</title>
  <desc
     id="desc4">Drawing page: Page007 exported from FreeCAD document: sketch_size_papertest</desc>
  <defs
     id="defs6" />
  <path
     d="M 2135,1050 1765,1211.658 1485,1050 1735,1153.553 1944.619,1509.619 1588.553,1300 1944.619,1509.619 1485,1050 1765,888.342 2135,1050 1765,1211.658 1485,1050 1765,888.342 2135,1050 H 1485 L 1588.553,800 1944.619,590.381 1485,1050 1588.553,800 1944.619,590.381 1735,946.447 1485,1050 1323.342,770 1485,400 v 650 L 1323.342,770 1485,400 1646.658,770 1485,1050 1235,946.447 1025.381,590.381 1485,1050 1235,946.447 1025.381,590.381 1381.447,800 1485,1050 1205,1211.658 835,1050 h 650 L 1205,1211.658 835,1050 1205,888.342 1485,1050 1381.447,1300 1025.381,1509.619 1485,1050 1381.447,1300 1025.381,1509.619 1235,1153.553 1485,1050 1646.658,1330 1485,1700 V 1050 L 1646.658,1330 1485,1700 1323.342,1330 1485,1050 1735,1153.553 1944.619,1509.619 1485,1050 1735,946.447 1944.619,590.381 1485,1050 1646.658,770 1485,400 v 650 L 1381.447,800 1025.381,590.381 1485,1050 1205,888.342 835,1050 h 650 L 1235,1153.553 1025.381,1509.619 1485,1050 1323.342,1330 1485,1700 V 1050 L 1588.553,1300 1485,1050 h 650"
     id="path50"
     inkscape:connector-curvature="0"
     style="font-style:normal;font-weight:400;font-size:medium;font-family:'Sans Serif';vector-effect:non-scaling-stroke;fill:none;fill-opacity:1;fill-rule:evenodd;stroke:#000000;stroke-width:1;stroke-linecap:square;stroke-linejoin:bevel;stroke-opacity:1" />
</svg>
